# This file uses centimeters as units for non-parametric coordinates.

mtllib Mesh_Antler.mtl
g default
v 1.168951 -0.773442 -1.389513
v 0.029649 0.022005 -1.965068
v -1.109653 0.817452 -1.389513
v -1.581567 1.146937 -0.000000
v -1.109653 0.817452 1.389513
v 0.029649 0.022005 1.965068
v 1.168951 -0.773442 1.389513
v 1.640865 -1.102927 -0.000000
v 1.977787 1.106192 -0.994181
v 1.162629 1.675326 -1.405984
v 0.347471 2.244460 -0.994181
v 0.009822 2.480202 0.000000
v 0.347471 2.244460 0.994181
v 1.162629 1.675326 1.405985
v 1.977787 1.106192 0.994181
v 2.315437 0.870449 0.000000
v 3.867924 3.914396 -0.994181
v 3.052766 4.483530 -1.405984
v 2.237608 5.052663 -0.994181
v 1.899958 5.288406 0.000000
v 2.237608 5.052663 0.994181
v 3.052766 4.483530 1.405985
v 3.867924 3.914396 0.994181
v 4.205574 3.678652 0.000000
v 6.847865 8.751661 -0.940177
v 6.076985 9.289878 -1.329612
v 5.306106 9.828096 -0.940177
v 4.986796 10.051029 0.000000
v 5.306106 9.828096 0.940177
v 6.076985 9.289878 1.329612
v 6.847865 8.751661 0.940177
v 7.167172 8.528722 0.000000
v 10.931145 12.798847 -0.914101
v 10.259296 13.459227 -1.296550
v 9.565187 14.087727 -0.900379
v 9.251444 14.310485 0.041458
v 9.505859 14.002750 0.977118
v 10.183380 13.350492 1.359364
v 10.883114 12.730051 0.964381
v 11.191189 12.499174 0.022748
v 16.025007 16.933956 -0.075827
v 15.132282 17.673595 -0.546974
v 14.085114 18.192032 -0.099013
v 13.498323 18.187578 1.006317
v 13.714249 17.660851 2.120769
v 14.604998 16.918377 2.590839
v 15.650180 16.397099 2.141924
v 16.238941 16.404373 1.037668
v 16.176754 19.186386 0.866557
v 15.403926 19.496027 0.402707
v 14.483980 19.594955 0.631207
v 13.965168 19.438625 1.420815
v 14.143255 19.106939 2.300627
v 14.904615 18.780874 2.752531
v 15.811407 18.663109 2.520013
v 16.341690 18.835861 1.742351
v 16.325645 22.709772 2.387777
v 15.696476 22.952488 1.949238
v 14.900567 22.956385 2.065829
v 14.412237 22.730770 2.672831
v 14.511169 22.398661 3.405344
v 15.131382 22.143116 3.830608
v 15.915947 22.122967 3.708685
v 16.413237 22.361408 3.114958
v 17.070356 28.121496 5.794235
v 16.217516 28.646889 5.330566
v 15.130166 28.836391 5.341438
v 14.452647 28.589645 5.827179
v 14.576905 28.043968 6.491634
v 15.422747 27.508551 6.938828
v 16.499739 27.304214 6.918262
v 17.184269 27.560987 6.449008
v 17.864727 30.658554 8.379202
v 17.349756 31.179619 8.055703
v 16.564692 31.313839 8.139434
v 15.972119 30.986496 8.585770
v 15.917049 30.386234 9.127915
v 16.428995 29.860830 9.443856
v 17.210236 29.721142 9.353827
v 17.805830 30.052818 8.915046
v 18.116209 32.291588 10.674212
v 17.760721 32.635418 10.398790
v 17.196913 32.680847 10.376437
v 16.757210 32.404419 10.624106
v 16.697893 31.966110 10.991843
v 17.051510 31.619629 11.260410
v 17.612278 31.569824 11.277292
v 18.053856 31.848942 11.036528
v 18.077503 34.052067 13.004534
v 17.748264 34.373550 12.680825
v 17.196318 34.376041 12.571823
v 16.747829 34.062214 12.746893
v 16.664366 33.614140 13.096348
v 16.991934 33.290276 13.409979
v 17.539890 33.282059 13.511143
v 17.990042 33.598282 13.346159
v 17.085674 36.166119 15.686164
v 16.839458 36.434761 15.384097
v 16.393812 36.417740 15.225538
v 16.012045 36.128311 15.308443
v 15.917341 35.735302 15.577888
v 16.162897 35.465736 15.870960
v 16.605385 35.478210 16.022312
v 16.987804 35.768585 15.948421
v 15.407369 37.969532 17.600853
v 15.254802 38.158844 17.408411
v 14.967711 38.155468 17.291309
v 14.715135 37.962639 17.320465
v 14.644954 37.693192 17.476017
v 14.797412 37.503731 17.664547
v 15.083291 37.505363 17.778370
v 15.335977 37.698338 17.753124
v 14.079459 39.233959 19.035442
v 13.994387 39.349651 18.926390
v 13.829736 39.351364 18.852905
v 13.682218 39.238480 18.858833
v 13.638263 39.077122 18.939783
v 13.723345 38.961441 19.047499
v 13.887622 38.959198 19.119839
v 14.035129 39.072067 19.115231
v 5.179123 1.129668 0.688902
v 4.909109 0.512969 0.000000
v 5.849748 2.661348 0.000000
v 5.579726 2.044648 0.688902
v 5.179123 1.129668 -0.688902
v 5.579726 2.044648 -0.688902
v 8.301307 1.559156 0.531820
v 8.291962 2.078790 0.000000
v 8.315171 0.788199 0.531820
v 8.324516 0.268568 0.000000
v 8.315171 0.788199 -0.531820
v 8.301307 1.559156 -0.531820
v 11.054951 2.240921 0.392192
v 10.898563 2.590834 0.000000
v 11.286974 1.721774 0.392192
v 11.443357 1.371866 0.000000
v 11.286974 1.721774 -0.392192
v 11.054951 2.240921 -0.392192
v 13.520743 3.898177 0.182751
v 13.390477 4.020350 0.000000
v 13.714014 3.716917 0.182751
v 13.844276 3.594748 0.000000
v 13.714014 3.716917 -0.182751
v 13.520743 3.898177 -0.182751
v 17.023331 16.687256 2.155304
v 17.194553 16.519684 1.236866
v 17.127792 18.324305 1.754365
v 16.976665 17.562325 2.401651
v 17.339378 17.162327 0.534376
v 17.321474 18.033783 0.785541
v 18.710707 18.100838 2.634360
v 18.613884 18.550362 2.189100
v 19.092638 17.632273 2.562084
v 19.380318 17.599213 2.039959
v 19.326229 17.990997 1.583554
v 18.966370 18.442860 1.655369
v 19.845432 19.180805 3.224355
v 19.721012 19.466675 2.858205
v 20.243059 18.949007 3.244025
v 20.523880 19.000036 2.898510
v 20.446413 19.259319 2.534955
v 20.067051 19.479145 2.515620
v 20.359978 20.301949 3.635704
v 20.303421 20.403410 3.467722
v 20.542873 20.248844 3.671820
v 20.672890 20.296980 3.541059
v 20.638048 20.392666 3.377439
v 20.463408 20.442593 3.342574
v 14.732173 30.153622 6.230921
v 14.140369 29.306000 6.174068
v 15.156422 30.761272 7.871813
v 15.150080 30.752188 6.932714
v 14.229051 29.433010 7.181680
v 14.626055 30.001638 7.848377
v 14.070605 31.569530 7.095021
v 14.042062 31.425194 7.773691
v 13.761928 31.279480 6.685086
v 13.286207 30.720982 6.777650
v 13.308362 30.629845 7.504577
v 13.606559 30.904888 7.896409
v 12.429949 33.122490 7.597281
v 12.453686 32.943848 8.130947
v 12.107122 32.972614 7.276944
v 11.657717 32.581451 7.348959
v 11.729448 32.431679 7.921702
v 12.045952 32.572502 8.230543
v 11.050193 34.814556 8.417364
v 11.093708 34.621422 8.801914
v 10.759897 34.774208 8.191624
v 10.374986 34.526279 8.248274
v 10.458870 34.343052 8.661330
v 10.746020 34.378902 8.880850
v 10.233290 36.149960 9.338387
v 10.272684 35.980026 9.583351
v 10.014042 36.168594 9.201323
v 9.728497 36.028427 9.245650
v 9.797092 35.857864 9.508271
v 10.015135 35.837502 9.642710
v 1.109904 -1.356474 -0.000000
v 0.710326 -1.077493 -1.176522
v 0.710326 -1.077493 1.176522
v -0.254338 -0.403976 1.663854
v -1.219003 0.269542 1.176522
v -1.618580 0.548522 -0.000000
v -1.219003 0.269542 -1.176522
v -0.254338 -0.403976 -1.663854
v -0.162657 -1.191382 -0.000000
v -0.288961 -1.103198 -0.371892
v -0.288961 -1.103198 0.371892
v -0.593886 -0.890303 0.525935
v -0.898811 -0.677408 0.371892
v -1.025115 -0.589224 -0.000000
v -0.898811 -0.677408 -0.371892
v -0.593886 -0.890303 -0.525935
vt 0.610485 0.045765
vt 0.500000 0.000000
vt 0.389515 0.045765
vt 0.343750 0.156250
vt 0.389515 0.266735
vt 0.500000 0.312500
vt 0.610485 0.266735
vt 0.656250 0.156250
vt 0.375000 0.312500
vt 0.406250 0.312500
vt 0.437500 0.312500
vt 0.468750 0.312500
vt 0.500000 0.312500
vt 0.531250 0.312500
vt 0.562500 0.312500
vt 0.593750 0.312500
vt 0.625000 0.312500
vt 0.375000 0.688440
vt 0.406250 0.688440
vt 0.437500 0.688440
vt 0.468750 0.688440
vt 0.500000 0.688440
vt 0.531250 0.688440
vt 0.562500 0.688440
vt 0.593750 0.688440
vt 0.625000 0.688440
vt 0.610485 0.733265
vt 0.500000 0.687500
vt 0.389515 0.733265
vt 0.343750 0.843750
vt 0.389515 0.954235
vt 0.500000 1.000000
vt 0.610485 0.954235
vt 0.656250 0.843750
vt 0.610485 0.954235
vt 0.500000 1.000000
vt 0.389515 0.954235
vt 0.343750 0.843750
vt 0.389515 0.733265
vt 0.500000 0.687500
vt 0.610485 0.733265
vt 0.656250 0.843750
vt 0.610485 0.954235
vt 0.500000 1.000000
vt 0.389515 0.954235
vt 0.343750 0.843750
vt 0.389515 0.733265
vt 0.500000 0.687500
vt 0.610485 0.733265
vt 0.656250 0.843750
vt 0.610485 0.954235
vt 0.500000 1.000000
vt 0.389515 0.954235
vt 0.343750 0.843750
vt 0.389515 0.733265
vt 0.500000 0.687500
vt 0.610485 0.733265
vt 0.656250 0.843750
vt 0.610485 0.954235
vt 0.500000 1.000000
vt 0.389515 0.954235
vt 0.343750 0.843750
vt 0.389515 0.733265
vt 0.500000 0.687500
vt 0.610485 0.733265
vt 0.656250 0.843750
vt 0.610485 0.954235
vt 0.500000 1.000000
vt 0.389515 0.954235
vt 0.343750 0.843750
vt 0.389515 0.733265
vt 0.500000 0.687500
vt 0.610485 0.733265
vt 0.656250 0.843750
vt 0.610485 0.954235
vt 0.500000 1.000000
vt 0.389515 0.954235
vt 0.343750 0.843750
vt 0.389515 0.733265
vt 0.500000 0.687500
vt 0.610485 0.733265
vt 0.656250 0.843750
vt 0.610485 0.954235
vt 0.500000 1.000000
vt 0.389515 0.954235
vt 0.343750 0.843750
vt 0.389515 0.733265
vt 0.500000 0.687500
vt 0.610485 0.733265
vt 0.656250 0.843750
vt 0.610485 0.954235
vt 0.500000 1.000000
vt 0.389515 0.954235
vt 0.343750 0.843750
vt 0.389515 0.733265
vt 0.500000 0.687500
vt 0.610485 0.733265
vt 0.656250 0.843750
vt 0.610485 0.954235
vt 0.500000 1.000000
vt 0.389515 0.954235
vt 0.343750 0.843750
vt 0.389515 0.733265
vt 0.500000 0.687500
vt 0.610485 0.733265
vt 0.656250 0.843750
vt 0.610485 0.954235
vt 0.500000 1.000000
vt 0.389515 0.954235
vt 0.343750 0.843750
vt 0.389515 0.733265
vt 0.500000 0.687500
vt 0.610485 0.733265
vt 0.656250 0.843750
vt 0.610485 0.954235
vt 0.500000 1.000000
vt 0.389515 0.954235
vt 0.343750 0.843750
vt 0.389515 0.733265
vt 0.500000 0.687500
vt 0.610485 0.733265
vt 0.656250 0.843750
vt 0.610485 0.954235
vt 0.500000 1.000000
vt 0.389515 0.954235
vt 0.343750 0.843750
vt 0.389515 0.733265
vt 0.500000 0.687500
vt 0.610485 0.733265
vt 0.656250 0.843750
vt 0.610485 0.954235
vt 0.500000 1.000000
vt 0.389515 0.954235
vt 0.343750 0.843750
vt 0.389515 0.733265
vt 0.500000 0.687500
vt 0.610485 0.733265
vt 0.656250 0.843750
vt 0.610485 0.733265
vt 0.656250 0.843750
vt 0.656250 0.843750
vt 0.610485 0.733265
vt 0.610485 0.954235
vt 0.610485 0.954235
vt 0.656250 0.843750
vt 0.610485 0.733265
vt 0.610485 0.733265
vt 0.656250 0.843750
vt 0.610485 0.954235
vt 0.610485 0.954235
vt 0.656250 0.843750
vt 0.610485 0.733265
vt 0.610485 0.733265
vt 0.656250 0.843750
vt 0.610485 0.954235
vt 0.610485 0.954235
vt 0.656250 0.843750
vt 0.610485 0.733265
vt 0.610485 0.733265
vt 0.656250 0.843750
vt 0.610485 0.954235
vt 0.610485 0.954235
vt 0.610485 0.733265
vt 0.656250 0.843750
vt 0.656250 0.843750
vt 0.610485 0.733265
vt 0.610485 0.954235
vt 0.610485 0.954235
vt 0.656250 0.843750
vt 0.610485 0.733265
vt 0.610485 0.733265
vt 0.656250 0.843750
vt 0.610485 0.954235
vt 0.610485 0.954235
vt 0.656250 0.843750
vt 0.610485 0.733265
vt 0.610485 0.733265
vt 0.656250 0.843750
vt 0.610485 0.954235
vt 0.610485 0.954235
vt 0.656250 0.843750
vt 0.610485 0.733265
vt 0.610485 0.733265
vt 0.656250 0.843750
vt 0.610485 0.954235
vt 0.610485 0.954235
vt 0.389515 0.954235
vt 0.343750 0.843750
vt 0.343750 0.843750
vt 0.389515 0.954235
vt 0.389515 0.733265
vt 0.389515 0.733265
vt 0.343750 0.843750
vt 0.389515 0.954235
vt 0.389515 0.954235
vt 0.343750 0.843750
vt 0.389515 0.733265
vt 0.389515 0.733265
vt 0.343750 0.843750
vt 0.389515 0.954235
vt 0.389515 0.954235
vt 0.343750 0.843750
vt 0.389515 0.733265
vt 0.389515 0.733265
vt 0.343750 0.843750
vt 0.389515 0.954235
vt 0.389515 0.954235
vt 0.343750 0.843750
vt 0.389515 0.733265
vt 0.389515 0.733265
vt 0.343750 0.843750
vt 0.389515 0.954235
vt 0.389515 0.954235
vt 0.343750 0.843750
vt 0.389515 0.733265
vt 0.389515 0.733265
vt 0.610485 0.045765
vt 0.656250 0.156250
vt 0.610485 0.266735
vt 0.500000 0.312500
vt 0.389515 0.266735
vt 0.343750 0.156250
vt 0.389515 0.045765
vt 0.500000 0.000000
vt 0.610485 0.045765
vt 0.656250 0.156250
vt 0.610485 0.266735
vt 0.500000 0.312500
vt 0.389515 0.266735
vt 0.343750 0.156250
vt 0.389515 0.045765
vt 0.500000 0.000000
vn 0.448201 -0.004856 -0.893919
vn 0.448201 -0.004856 -0.893919
vn 0.448201 -0.004856 -0.893919
vn 0.448201 -0.004856 -0.893919
vn -0.162960 0.414447 -0.895365
vn -0.162960 0.414447 -0.895365
vn -0.162960 0.414447 -0.895365
vn -0.162960 0.414447 -0.895365
vn -0.596297 0.711741 -0.371288
vn -0.596297 0.711741 -0.371288
vn -0.596297 0.711741 -0.371288
vn -0.596297 0.711741 -0.371288
vn -0.596297 0.711741 0.371288
vn -0.596297 0.711741 0.371288
vn -0.596297 0.711741 0.371288
vn -0.596297 0.711741 0.371288
vn -0.162960 0.414447 0.895365
vn -0.162960 0.414447 0.895365
vn -0.162960 0.414447 0.895365
vn -0.162960 0.414447 0.895365
vn 0.448202 -0.004856 0.893919
vn 0.448202 -0.004856 0.893919
vn 0.448202 -0.004856 0.893919
vn 0.448202 -0.004856 0.893919
vn 0.879148 -0.300525 0.369842
vn 0.879148 -0.300525 0.369842
vn 0.879148 -0.300525 0.369842
vn 0.879148 -0.300525 0.369842
vn 0.879148 -0.300525 -0.369842
vn 0.879148 -0.300525 -0.369842
vn 0.879148 -0.300525 -0.369842
vn 0.879148 -0.300525 -0.369842
vn -0.572465 -0.819929 0.000000
vn -0.572465 -0.819929 0.000000
vn -0.572465 -0.819929 0.000000
vn -0.572465 -0.819929 0.000000
vn -0.572465 -0.819929 0.000000
vn -0.572465 -0.819929 0.000000
vn -0.572465 -0.819929 0.000000
vn -0.572465 -0.819929 0.000000
vn -0.347904 0.491891 0.798126
vn -0.347904 0.491891 0.798126
vn -0.347904 0.491891 0.798126
vn -0.347904 0.491891 0.798126
vn -0.347904 0.491891 0.798126
vn -0.347904 0.491891 0.798126
vn -0.347904 0.491891 0.798126
vn -0.347904 0.491891 0.798126
vn 0.317509 -0.213708 -0.923860
vn 0.317509 -0.213708 -0.923860
vn 0.317509 -0.213708 -0.923860
vn 0.317509 -0.213708 -0.923860
vn -0.317509 0.213708 -0.923860
vn -0.317509 0.213708 -0.923860
vn -0.317509 0.213708 -0.923860
vn -0.317509 0.213708 -0.923860
vn -0.766456 0.515883 -0.382636
vn -0.766456 0.515883 -0.382636
vn -0.766456 0.515883 -0.382636
vn -0.766456 0.515883 -0.382636
vn -0.766456 0.515883 0.382636
vn -0.766456 0.515883 0.382636
vn -0.766456 0.515883 0.382636
vn -0.766456 0.515883 0.382636
vn -0.317509 0.213708 0.923860
vn -0.317509 0.213708 0.923860
vn -0.317509 0.213708 0.923860
vn -0.317509 0.213708 0.923860
vn 0.317509 -0.213708 0.923860
vn 0.317509 -0.213708 0.923860
vn 0.317509 -0.213708 0.923860
vn 0.317509 -0.213708 0.923860
vn 0.684083 0.729404 0.000000
vn 0.684083 0.729404 0.000000
vn 0.684083 0.729404 0.000000
vn 0.684083 0.729404 0.000000
vn 0.684083 0.729404 0.000000
vn 0.684083 0.729404 0.000000
vn 0.331236 -0.193745 -0.923442
vn 0.331236 -0.193745 -0.923442
vn 0.331236 -0.193745 -0.923442
vn 0.331236 -0.193745 -0.923442
vn -0.317145 0.214232 -0.923864
vn -0.317145 0.214232 -0.923864
vn -0.317145 0.214232 -0.923864
vn -0.317145 0.214232 -0.923864
vn -0.775347 0.502532 -0.382489
vn -0.775347 0.502532 -0.382489
vn -0.775347 0.502532 -0.382489
vn -0.775347 0.502532 -0.382489
vn -0.775347 0.502532 0.382489
vn -0.775347 0.502532 0.382489
vn -0.775347 0.502532 0.382489
vn -0.775347 0.502532 0.382489
vn -0.317145 0.214232 0.923864
vn -0.317145 0.214232 0.923864
vn -0.317145 0.214232 0.923864
vn -0.317145 0.214232 0.923864
vn 0.331236 -0.193745 0.923442
vn 0.331236 -0.193745 0.923442
vn 0.331236 -0.193745 0.923442
vn 0.331236 -0.193745 0.923442
vn 0.788715 -0.481613 0.382069
vn 0.788715 -0.481613 0.382069
vn 0.788715 -0.481613 0.382069
vn 0.788715 -0.481613 0.382069
vn 0.788715 -0.481613 -0.382069
vn 0.788715 -0.481613 -0.382069
vn 0.788715 -0.481613 -0.382069
vn 0.788715 -0.481613 -0.382069
vn 0.272390 -0.267364 -0.924294
vn 0.272390 -0.267364 -0.924294
vn 0.272390 -0.267364 -0.924294
vn 0.272390 -0.267364 -0.924294
vn -0.271230 0.279591 -0.921012
vn -0.271230 0.279591 -0.921012
vn -0.271230 0.279591 -0.921012
vn -0.271230 0.279591 -0.921012
vn -0.653404 0.657341 -0.375455
vn -0.653404 0.657341 -0.375455
vn -0.653404 0.657341 -0.375455
vn -0.653404 0.657341 -0.375455
vn -0.653407 0.652181 0.384344
vn -0.653407 0.652181 0.384344
vn -0.653407 0.652181 0.384344
vn -0.653407 0.652181 0.384344
vn -0.272584 0.267445 0.924214
vn -0.272584 0.267445 0.924214
vn -0.272584 0.267445 0.924214
vn -0.272584 0.267445 0.924214
vn 0.270537 -0.280173 0.921039
vn 0.270537 -0.280173 0.921039
vn 0.270537 -0.280173 0.921039
vn 0.270537 -0.280173 0.921039
vn 0.649591 -0.660836 0.375935
vn 0.649591 -0.660836 0.375935
vn 0.649591 -0.660836 0.375935
vn 0.649591 -0.660836 0.375935
vn 0.650615 -0.655556 -0.383338
vn 0.650615 -0.655556 -0.383338
vn 0.650615 -0.655556 -0.383337
vn 0.650615 -0.655556 -0.383337
vn 0.320023 -0.206160 -0.924707
vn 0.320023 -0.206160 -0.924707
vn 0.320023 -0.206160 -0.924707
vn 0.320023 -0.206160 -0.924707
vn -0.187925 0.380975 -0.905286
vn -0.187925 0.380975 -0.905286
vn -0.187925 0.380975 -0.905286
vn -0.187925 0.380975 -0.905286
vn -0.594941 0.728594 -0.339406
vn -0.594941 0.728594 -0.339406
vn -0.594941 0.728594 -0.339406
vn -0.594941 0.728594 -0.339406
vn -0.662056 0.628778 0.407823
vn -0.662056 0.628778 0.407823
vn -0.662056 0.628778 0.407823
vn -0.662056 0.628778 0.407823
vn -0.371790 0.142517 0.917312
vn -0.371790 0.142517 0.917312
vn -0.371790 0.142517 0.917312
vn -0.371790 0.142517 0.917312
vn 0.127861 -0.455703 0.880901
vn 0.127861 -0.455703 0.880901
vn 0.127861 -0.455703 0.880901
vn 0.127861 -0.455703 0.880901
vn 0.533119 -0.783464 0.319326
vn 0.533119 -0.783464 0.319326
vn 0.533119 -0.783464 0.319326
vn 0.533119 -0.783464 0.319326
vn 0.610737 -0.674896 -0.414145
vn 0.610737 -0.674896 -0.414145
vn 0.610737 -0.674896 -0.414145
vn 0.610737 -0.674896 -0.414145
vn 0.599439 0.285012 -0.747958
vn 0.599439 0.285012 -0.747958
vn 0.599439 0.285012 -0.747958
vn 0.599439 0.285012 -0.747958
vn -0.146431 0.480737 -0.864552
vn -0.146431 0.480737 -0.864552
vn -0.146431 0.480737 -0.864552
vn -0.146431 0.480737 -0.864552
vn -0.791012 0.440949 -0.424104
vn -0.791012 0.440949 -0.424104
vn -0.791012 0.440949 -0.424104
vn -0.791012 0.440949 -0.424104
vn -0.925992 0.244097 0.288021
vn -0.925992 0.244097 0.288021
vn -0.925992 0.244097 0.288021
vn -0.925992 0.244097 0.288021
vn -0.479791 0.015100 0.877253
vn -0.479791 0.015100 0.877253
vn -0.479791 0.015100 0.877253
vn -0.479791 0.015100 0.877253
vn 0.279954 -0.155117 0.947399
vn 0.279954 -0.155117 0.947399
vn 0.279954 -0.155117 0.947399
vn 0.279954 -0.155117 0.947399
vn 0.156057 0.867332 0.472633
vn 0.156057 0.867332 0.472633
vn 0.156057 0.867332 0.472633
vn 0.156057 0.867332 0.472633
vn 0.156057 0.867332 0.472633
vn 0.156057 0.867332 0.472633
vn 0.596244 0.291118 -0.748160
vn 0.596244 0.291118 -0.748160
vn 0.596244 0.291118 -0.748160
vn 0.596244 0.291118 -0.748160
vn -0.156260 0.409307 -0.898916
vn -0.156260 0.409307 -0.898916
vn -0.156260 0.409307 -0.898916
vn -0.156260 0.409307 -0.898916
vn -0.809782 0.307007 -0.500001
vn -0.809782 0.307007 -0.500001
vn -0.809782 0.307007 -0.500001
vn -0.809782 0.307007 -0.500001
vn -0.980277 0.053213 0.190333
vn -0.980277 0.053213 0.190333
vn -0.980277 0.053213 0.190333
vn -0.980277 0.053213 0.190333
vn -0.584703 -0.205214 0.784863
vn -0.584703 -0.205214 0.784863
vn -0.584703 -0.205214 0.784863
vn -0.584703 -0.205214 0.784863
vn 0.169527 -0.318157 0.932758
vn 0.169527 -0.318157 0.932758
vn 0.169527 -0.318157 0.932758
vn 0.169527 -0.318157 0.932758
vn 0.811212 -0.219219 0.542106
vn 0.811212 -0.219219 0.542106
vn 0.811212 -0.219219 0.542106
vn 0.811212 -0.219219 0.542106
vn 0.989236 0.028026 -0.143622
vn 0.989236 0.028026 -0.143622
vn 0.989236 0.028026 -0.143622
vn 0.989236 0.028026 -0.143622
vn 0.614059 0.359460 -0.702652
vn 0.614059 0.359460 -0.702652
vn 0.614059 0.359460 -0.702652
vn 0.614059 0.359460 -0.702652
vn -0.007419 0.498912 -0.866621
vn -0.007419 0.498912 -0.866621
vn -0.007419 0.498912 -0.866621
vn -0.007419 0.498912 -0.866621
vn -0.712191 0.349766 -0.608644
vn -0.712191 0.349766 -0.608644
vn -0.712191 0.349766 -0.608644
vn -0.712191 0.349766 -0.608644
vn -0.990836 -0.057226 0.122345
vn -0.990836 -0.057226 0.122345
vn -0.990836 -0.057226 0.122345
vn -0.990836 -0.057226 0.122345
vn -0.614579 -0.371557 0.695872
vn -0.614579 -0.371557 0.695872
vn -0.614579 -0.371557 0.695872
vn -0.614579 -0.371557 0.695872
vn 0.003657 -0.514105 0.857719
vn 0.003657 -0.514105 0.857719
vn 0.003657 -0.514105 0.857719
vn 0.003657 -0.514105 0.857720
vn 0.694547 -0.446331 0.564263
vn 0.694547 -0.446331 0.564263
vn 0.694547 -0.446331 0.564263
vn 0.694547 -0.446331 0.564263
vn 0.985400 -0.034906 -0.166638
vn 0.985400 -0.034906 -0.166638
vn 0.985400 -0.034906 -0.166638
vn 0.985400 -0.034906 -0.166638
vn 0.667983 0.402056 -0.626218
vn 0.667983 0.402056 -0.626218
vn 0.667983 0.402056 -0.626218
vn 0.667983 0.402056 -0.626218
vn 0.088986 0.716798 -0.691580
vn 0.088986 0.716798 -0.691580
vn 0.088986 0.716798 -0.691580
vn 0.088986 0.716798 -0.691580
vn -0.288671 0.765601 0.574912
vn -0.288671 0.765601 0.574912
vn -0.288671 0.765601 0.574912
vn -0.288671 0.765601 0.574912
vn -0.288671 0.765601 0.574912
vn -0.288671 0.765601 0.574912
vn -0.660545 -0.379387 0.647878
vn -0.660545 -0.379387 0.647878
vn -0.660545 -0.379387 0.647878
vn -0.660545 -0.379387 0.647878
vn -0.087730 -0.701296 0.707451
vn -0.087730 -0.701296 0.707451
vn -0.087730 -0.701296 0.707451
vn -0.087730 -0.701296 0.707451
vn 0.620122 -0.632163 0.464562
vn 0.620122 -0.632163 0.464562
vn 0.620122 -0.632163 0.464562
vn 0.620122 -0.632163 0.464562
vn 0.980394 -0.116208 -0.159132
vn 0.980394 -0.116208 -0.159131
vn 0.980394 -0.116208 -0.159131
vn 0.980394 -0.116208 -0.159131
vn 0.768003 0.477003 -0.427363
vn 0.768003 0.477003 -0.427363
vn 0.768003 0.477003 -0.427363
vn 0.768003 0.477003 -0.427363
vn 0.087313 0.839045 -0.537009
vn 0.087313 0.839046 -0.537009
vn 0.087313 0.839045 -0.537009
vn 0.087313 0.839045 -0.537009
vn -0.616689 0.737299 -0.275835
vn -0.616689 0.737299 -0.275835
vn -0.616689 0.737299 -0.275835
vn -0.616689 0.737299 -0.275835
vn -0.948310 0.261702 0.179499
vn -0.948310 0.261702 0.179499
vn -0.948310 0.261702 0.179499
vn -0.948310 0.261702 0.179499
vn -0.736115 -0.337415 0.586759
vn -0.736115 -0.337415 0.586759
vn -0.736115 -0.337415 0.586759
vn -0.736115 -0.337415 0.586759
vn -0.061983 -0.709822 0.701649
vn -0.061983 -0.709822 0.701649
vn -0.061983 -0.709822 0.701649
vn -0.061983 -0.709822 0.701649
vn 0.652871 -0.611912 0.446456
vn 0.652871 -0.611912 0.446456
vn 0.652871 -0.611912 0.446456
vn 0.652871 -0.611912 0.446456
vn 0.991856 -0.126602 -0.013880
vn 0.991856 -0.126602 -0.013880
vn 0.991857 -0.126602 -0.013880
vn 0.991857 -0.126602 -0.013880
vn 0.792982 0.489604 -0.362585
vn 0.792982 0.489604 -0.362585
vn 0.792982 0.489604 -0.362585
vn 0.792982 0.489604 -0.362585
vn 0.105119 0.789303 -0.604939
vn 0.105119 0.789303 -0.604939
vn 0.105119 0.789303 -0.604939
vn 0.105119 0.789303 -0.604939
vn -0.632576 0.611027 -0.475914
vn -0.632576 0.611027 -0.475913
vn -0.632576 0.611027 -0.475913
vn -0.632576 0.611027 -0.475914
vn -0.992233 0.092899 -0.082721
vn -0.992233 0.092899 -0.082721
vn -0.992233 0.092899 -0.082721
vn -0.992233 0.092899 -0.082721
vn -0.792569 -0.489078 0.364195
vn -0.792569 -0.489078 0.364195
vn -0.792569 -0.489078 0.364195
vn -0.792569 -0.489078 0.364195
vn -0.105749 -0.788760 0.605537
vn -0.105749 -0.788760 0.605537
vn -0.105749 -0.788760 0.605537
vn -0.105749 -0.788760 0.605537
vn 0.627463 -0.610187 0.483696
vn 0.627463 -0.610187 0.483696
vn 0.627463 -0.610187 0.483696
vn 0.627463 -0.610187 0.483696
vn 0.991359 -0.093142 0.092364
vn 0.991359 -0.093142 0.092364
vn 0.991359 -0.093142 0.092364
vn 0.991359 -0.093142 0.092364
vn 0.791225 0.585937 -0.175046
vn 0.791225 0.585937 -0.175046
vn 0.791225 0.585937 -0.175046
vn 0.791225 0.585937 -0.175046
vn 0.141905 0.807230 -0.572925
vn 0.141905 0.807230 -0.572925
vn 0.141905 0.807230 -0.572925
vn 0.141905 0.807230 -0.572925
vn -0.583349 0.545529 -0.601749
vn -0.583349 0.545528 -0.601749
vn -0.583349 0.545528 -0.601749
vn -0.583349 0.545529 -0.601749
vn -0.959989 -0.002699 -0.280024
vn -0.959989 -0.002699 -0.280024
vn -0.959989 -0.002699 -0.280024
vn -0.959989 -0.002699 -0.280024
vn -0.804838 -0.550460 0.221879
vn -0.804838 -0.550460 0.221879
vn -0.804838 -0.550460 0.221879
vn -0.804838 -0.550460 0.221879
vn -0.154960 -0.768539 0.620754
vn -0.154960 -0.768539 0.620754
vn -0.154960 -0.768539 0.620754
vn -0.154960 -0.768539 0.620754
vn 0.560330 -0.512991 0.650285
vn 0.560330 -0.512991 0.650285
vn 0.560330 -0.512991 0.650285
vn 0.560330 -0.512991 0.650285
vn 0.942950 0.029928 0.331586
vn 0.942950 0.029928 0.331586
vn 0.942950 0.029928 0.331586
vn 0.942950 0.029928 0.331586
vn 0.744115 0.667799 0.018364
vn 0.744115 0.667799 0.018364
vn 0.744115 0.667799 0.018364
vn 0.744115 0.667799 0.018364
vn 0.185027 0.813074 -0.551974
vn 0.185027 0.813074 -0.551974
vn 0.185027 0.813074 -0.551974
vn 0.185027 0.813074 -0.551974
vn -0.487026 0.469479 -0.736475
vn -0.487026 0.469479 -0.736475
vn -0.487026 0.469479 -0.736475
vn -0.487026 0.469479 -0.736475
vn -0.871019 -0.092701 -0.482423
vn -0.871019 -0.092701 -0.482423
vn -0.871019 -0.092701 -0.482423
vn -0.871019 -0.092701 -0.482423
vn -0.794524 -0.601489 0.083326
vn -0.794524 -0.601489 0.083326
vn -0.794524 -0.601489 0.083326
vn -0.794524 -0.601489 0.083326
vn -0.222736 -0.726169 0.650436
vn -0.222736 -0.726169 0.650436
vn -0.222736 -0.726169 0.650436
vn -0.222736 -0.726169 0.650436
vn 0.425787 -0.392229 0.815391
vn 0.425787 -0.392229 0.815391
vn 0.425787 -0.392229 0.815391
vn 0.425787 -0.392229 0.815391
vn 0.806691 0.150129 0.571587
vn 0.806691 0.150129 0.571587
vn 0.806691 0.150129 0.571587
vn 0.806691 0.150129 0.571587
vn 0.738899 0.667400 0.092766
vn 0.738899 0.667400 0.092766
vn 0.738899 0.667400 0.092766
vn 0.738899 0.667400 0.092766
vn 0.205506 0.844550 -0.494472
vn 0.205506 0.844550 -0.494472
vn 0.205506 0.844550 -0.494472
vn 0.205506 0.844550 -0.494472
vn -0.455538 0.512656 -0.727784
vn -0.455538 0.512656 -0.727784
vn -0.455538 0.512656 -0.727784
vn -0.455538 0.512656 -0.727784
vn -0.850179 -0.061790 -0.522855
vn -0.850179 -0.061790 -0.522855
vn -0.850179 -0.061790 -0.522855
vn -0.850179 -0.061790 -0.522855
vn -0.797667 -0.602809 0.018686
vn -0.797666 -0.602809 0.018686
vn -0.797666 -0.602809 0.018686
vn -0.797667 -0.602809 0.018686
vn -0.250022 -0.758283 0.602077
vn -0.250022 -0.758283 0.602077
vn -0.250022 -0.758283 0.602077
vn -0.250022 -0.758283 0.602077
vn 0.390823 -0.432057 0.812763
vn 0.390823 -0.432057 0.812763
vn 0.390823 -0.432057 0.812763
vn 0.390823 -0.432057 0.812763
vn 0.778117 0.122211 0.616115
vn 0.778117 0.122211 0.616115
vn 0.778117 0.122211 0.616115
vn 0.778117 0.122211 0.616115
vn -0.027677 -0.892210 0.450771
vn -0.027677 -0.892210 0.450771
vn -0.027677 -0.892210 0.450771
vn -0.027677 -0.892210 0.450771
vn 0.622923 0.683949 0.379712
vn 0.622923 0.683949 0.379712
vn 0.622923 0.683949 0.379712
vn 0.622923 0.683949 0.379712
vn 0.100233 -0.061670 0.993051
vn 0.100233 -0.061670 0.993051
vn 0.100233 -0.061670 0.993051
vn 0.100233 -0.061670 0.993051
vn -0.027677 -0.892210 -0.450771
vn -0.027677 -0.892210 -0.450771
vn -0.027677 -0.892210 -0.450771
vn -0.027677 -0.892210 -0.450771
vn 0.100233 -0.061670 -0.993051
vn 0.100233 -0.061670 -0.993051
vn 0.100233 -0.061670 -0.993051
vn 0.100233 -0.061670 -0.993051
vn 0.622923 0.683949 -0.379712
vn 0.622923 0.683949 -0.379712
vn 0.622923 0.683949 -0.379712
vn 0.622923 0.683949 -0.379712
vn 0.166567 0.703738 0.690658
vn 0.166567 0.703738 0.690658
vn 0.037001 0.713976 0.699192
vn 0.034140 0.714065 0.699247
vn 0.051877 -0.011900 0.998583
vn 0.051877 -0.011900 0.998583
vn 0.049598 -0.003526 0.998763
vn 0.049414 -0.002848 0.998774
vn -0.048466 -0.725912 0.686078
vn -0.048466 -0.725912 0.686078
vn 0.068865 -0.716743 0.693929
vn 0.078732 -0.715512 0.694150
vn -0.048466 -0.725912 -0.686078
vn -0.048466 -0.725912 -0.686078
vn 0.078732 -0.715512 -0.694150
vn 0.068865 -0.716743 -0.693929
vn 0.051877 -0.011900 -0.998583
vn 0.051877 -0.011900 -0.998583
vn 0.049414 -0.002848 -0.998774
vn 0.049598 -0.003526 -0.998763
vn 0.166567 0.703738 -0.690658
vn 0.166567 0.703738 -0.690658
vn 0.034140 0.714065 -0.699247
vn 0.037001 0.713976 -0.699192
vn -0.139766 0.708462 0.691771
vn -0.139766 0.708462 0.691771
vn 0.046234 0.008812 0.998892
vn 0.046234 0.008812 0.998892
vn 0.244468 -0.683884 0.687414
vn 0.244468 -0.683884 0.687414
vn 0.244468 -0.683884 -0.687414
vn 0.244468 -0.683884 -0.687414
vn 0.046234 0.008812 -0.998892
vn 0.046234 0.008812 -0.998892
vn -0.139766 0.708462 -0.691771
vn -0.139766 0.708462 -0.691771
vn -0.359905 0.625046 0.692666
vn -0.359905 0.625046 0.692666
vn -0.359905 0.625046 0.692666
vn -0.359905 0.625046 0.692666
vn 0.058770 0.035686 0.997634
vn 0.058770 0.035686 0.997634
vn 0.058770 0.035686 0.997634
vn 0.058770 0.035686 0.997634
vn 0.495819 -0.533491 0.685238
vn 0.495819 -0.533491 0.685238
vn 0.495819 -0.533491 0.685238
vn 0.495819 -0.533491 0.685238
vn 0.495819 -0.533491 -0.685238
vn 0.495819 -0.533491 -0.685238
vn 0.495819 -0.533491 -0.685238
vn 0.495819 -0.533491 -0.685238
vn 0.058770 0.035686 -0.997634
vn 0.058770 0.035686 -0.997634
vn 0.058770 0.035686 -0.997634
vn 0.058770 0.035686 -0.997634
vn -0.359905 0.625046 -0.692666
vn -0.359905 0.625046 -0.692666
vn -0.359905 0.625046 -0.692666
vn -0.359905 0.625046 -0.692666
vn 0.157788 -0.977953 0.136787
vn 0.157788 -0.977953 0.136787
vn 0.157788 -0.977953 0.136787
vn 0.157788 -0.977953 0.136787
vn 0.515481 0.582410 0.628551
vn 0.515481 0.582411 0.628551
vn 0.515481 0.582410 0.628551
vn 0.515482 0.582410 0.628551
vn -0.021451 -0.194184 0.980731
vn -0.021451 -0.194184 0.980731
vn -0.021451 -0.194184 0.980731
vn -0.021451 -0.194184 0.980731
vn 0.307198 -0.794171 -0.524330
vn 0.307198 -0.794171 -0.524330
vn 0.307198 -0.794171 -0.524330
vn 0.307198 -0.794171 -0.524330
vn 0.314658 0.326986 -0.891106
vn 0.314658 0.326986 -0.891106
vn 0.314658 0.326986 -0.891106
vn 0.314658 0.326986 -0.891106
vn 0.653181 0.756403 0.034784
vn 0.653181 0.756403 0.034784
vn 0.653180 0.756403 0.034784
vn 0.653180 0.756403 0.034784
vn -0.298980 0.646432 0.701952
vn -0.298980 0.646432 0.701952
vn -0.298980 0.646432 0.701952
vn -0.298980 0.646432 0.701952
vn -0.064991 -0.249829 0.966106
vn -0.064991 -0.249829 0.966106
vn -0.064991 -0.249829 0.966106
vn -0.064991 -0.249829 0.966106
vn 0.360478 -0.901269 0.240354
vn 0.360478 -0.901269 0.240354
vn 0.360478 -0.901269 0.240354
vn 0.360478 -0.901269 0.240354
vn 0.536266 -0.650114 -0.538304
vn 0.536266 -0.650114 -0.538304
vn 0.536266 -0.650114 -0.538304
vn 0.536266 -0.650114 -0.538304
vn 0.356662 0.316363 -0.879038
vn 0.356662 0.316363 -0.879038
vn 0.356662 0.316363 -0.879038
vn 0.356662 0.316363 -0.879038
vn -0.076826 0.956537 -0.281310
vn -0.076826 0.956537 -0.281310
vn -0.076826 0.956537 -0.281310
vn -0.076826 0.956537 -0.281310
vn -0.700074 0.423632 0.574832
vn -0.700074 0.423632 0.574832
vn -0.700074 0.423632 0.574832
vn -0.700074 0.423632 0.574832
vn -0.205463 -0.298698 0.931968
vn -0.205463 -0.298698 0.931968
vn -0.205463 -0.298698 0.931968
vn -0.205463 -0.298698 0.931968
vn 0.593304 -0.712829 0.373985
vn 0.593304 -0.712829 0.373985
vn 0.593304 -0.712829 0.373984
vn 0.593304 -0.712829 0.373984
vn 0.809846 -0.389188 -0.438955
vn 0.809846 -0.389188 -0.438955
vn 0.809846 -0.389188 -0.438955
vn 0.809846 -0.389188 -0.438955
vn 0.297935 0.395765 -0.868680
vn 0.297935 0.395765 -0.868680
vn 0.297935 0.395765 -0.868680
vn 0.297935 0.395765 -0.868680
vn -0.419268 0.804133 -0.421408
vn -0.419268 0.804133 -0.421408
vn -0.419268 0.804133 -0.421408
vn -0.419268 0.804133 -0.421408
vn -0.858556 0.230446 0.458013
vn -0.858556 0.230446 0.458013
vn -0.858556 0.230446 0.458013
vn -0.858556 0.230446 0.458013
vn -0.215420 -0.254332 0.942820
vn -0.215420 -0.254332 0.942820
vn -0.215420 -0.254332 0.942820
vn -0.215420 -0.254332 0.942820
vn 0.741992 -0.361072 0.564867
vn 0.741992 -0.361072 0.564867
vn 0.741992 -0.361072 0.564867
vn 0.741992 -0.361072 0.564867
vn 0.977069 -0.006915 -0.212809
vn 0.977069 -0.006915 -0.212809
vn 0.977069 -0.006915 -0.212809
vn 0.977069 -0.006915 -0.212809
vn 0.333571 0.528178 -0.780871
vn 0.333571 0.528178 -0.780871
vn 0.333571 0.528178 -0.780871
vn 0.333571 0.528178 -0.780871
vn -0.541657 0.666364 -0.512413
vn -0.541657 0.666364 -0.512413
vn -0.541657 0.666364 -0.512413
vn -0.541657 0.666364 -0.512413
vn -0.526968 0.299506 -0.795362
vn -0.526968 0.299506 -0.795362
vn -0.526968 0.299506 -0.795362
vn -0.526968 0.299506 -0.795362
vn -0.373689 0.925947 0.054583
vn -0.373689 0.925947 0.054583
vn -0.373689 0.925947 0.054583
vn -0.373689 0.925947 0.054583
vn 0.371634 0.590897 -0.716051
vn 0.371634 0.590897 -0.716051
vn 0.371634 0.590897 -0.716051
vn 0.371634 0.590897 -0.716051
vn -0.947415 -0.317345 0.041194
vn -0.947415 -0.317345 0.041194
vn -0.947415 -0.317345 0.041194
vn -0.947415 -0.317345 0.041194
vn -0.539501 -0.470416 0.698317
vn -0.539501 -0.470416 0.698317
vn -0.539501 -0.470416 0.698317
vn -0.539501 -0.470416 0.698317
vn -0.667625 0.498375 0.553081
vn -0.667626 0.498375 0.553081
vn -0.667626 0.498375 0.553081
vn -0.667626 0.498375 0.553081
vn 0.559476 0.825292 0.076675
vn 0.559476 0.825293 0.076675
vn 0.559476 0.825293 0.076675
vn 0.559476 0.825293 0.076675
vn 0.356238 0.602377 -0.714309
vn 0.356238 0.602377 -0.714309
vn 0.356238 0.602377 -0.714309
vn 0.356238 0.602377 -0.714309
vn -0.281272 0.189650 -0.940701
vn -0.281272 0.189650 -0.940701
vn -0.281272 0.189650 -0.940701
vn -0.281272 0.189650 -0.940701
vn -0.814710 -0.576328 0.063980
vn -0.814710 -0.576328 0.063980
vn -0.814710 -0.576328 0.063980
vn -0.814710 -0.576328 0.063980
vn -0.443094 -0.536247 0.718406
vn -0.443094 -0.536247 0.718406
vn -0.443094 -0.536247 0.718406
vn -0.443094 -0.536247 0.718406
vn 0.021505 0.061175 0.997895
vn 0.021505 0.061175 0.997895
vn 0.021505 0.061175 0.997895
vn 0.021505 0.061175 0.997895
vn 0.702737 0.686774 0.185748
vn 0.702737 0.686774 0.185748
vn 0.702737 0.686774 0.185748
vn 0.702737 0.686774 0.185748
vn 0.374768 0.614469 -0.694246
vn 0.374768 0.614469 -0.694246
vn 0.374768 0.614469 -0.694246
vn 0.374768 0.614469 -0.694246
vn -0.254199 0.080604 -0.963787
vn -0.254199 0.080604 -0.963787
vn -0.254199 0.080604 -0.963787
vn -0.254199 0.080604 -0.963787
vn -0.759334 -0.647431 -0.065157
vn -0.759334 -0.647431 -0.065157
vn -0.759334 -0.647431 -0.065157
vn -0.759334 -0.647431 -0.065157
vn -0.438009 -0.550285 0.710869
vn -0.438008 -0.550285 0.710869
vn -0.438009 -0.550285 0.710869
vn -0.438009 -0.550285 0.710869
vn 0.234349 0.020706 0.971932
vn 0.234349 0.020706 0.971932
vn 0.234349 0.020706 0.971932
vn 0.234349 0.020706 0.971932
vn 0.800327 0.573843 0.173725
vn 0.800327 0.573843 0.173725
vn 0.800327 0.573843 0.173725
vn 0.800327 0.573843 0.173725
vn 0.393402 0.636489 -0.663413
vn 0.393402 0.636489 -0.663413
vn 0.393402 0.636489 -0.663413
vn 0.393402 0.636489 -0.663413
vn -0.314845 0.225401 -0.921991
vn -0.314845 0.225401 -0.921991
vn -0.314845 0.225401 -0.921991
vn -0.314845 0.225401 -0.921991
vn -0.842171 -0.537029 -0.048458
vn -0.842171 -0.537029 -0.048458
vn -0.842171 -0.537029 -0.048458
vn -0.842171 -0.537029 -0.048458
vn -0.442854 -0.566126 0.695257
vn -0.442854 -0.566126 0.695257
vn -0.442854 -0.566126 0.695257
vn -0.442854 -0.566126 0.695257
vn 0.316398 -0.115521 0.941566
vn 0.316398 -0.115521 0.941566
vn 0.316398 -0.115521 0.941566
vn 0.316398 -0.115521 0.941566
vn 0.883064 0.447348 0.141699
vn 0.883064 0.447348 0.141699
vn 0.883064 0.447348 0.141699
vn 0.883064 0.447348 0.141699
vn 0.410642 0.671412 -0.616911
vn 0.410641 0.671412 -0.616911
vn 0.410642 0.671412 -0.616911
vn 0.410642 0.671412 -0.616911
vn -0.361952 0.407099 -0.838606
vn -0.361952 0.407099 -0.838607
vn -0.361952 0.407099 -0.838607
vn -0.361952 0.407099 -0.838606
vn -0.917669 -0.397346 -0.000965
vn -0.917669 -0.397346 -0.000965
vn -0.917669 -0.397346 -0.000965
vn -0.917669 -0.397346 -0.000965
vn -0.455794 -0.579173 0.675878
vn -0.455794 -0.579173 0.675878
vn -0.455794 -0.579173 0.675878
vn -0.455794 -0.579173 0.675878
vn 0.377628 -0.276143 0.883822
vn 0.377628 -0.276143 0.883822
vn 0.377628 -0.276143 0.883822
vn 0.377628 -0.276143 0.883822
vn 0.405399 -0.848962 -0.338992
vn 0.405399 -0.848962 -0.338992
vn 0.163660 -0.945978 -0.279896
vn 0.164751 -0.945698 -0.280200
vn 0.405399 -0.848962 0.338992
vn 0.405399 -0.848962 0.338992
vn 0.164751 -0.945698 0.280200
vn 0.163660 -0.945978 0.279896
vn 0.006385 -0.580173 0.814469
vn 0.006385 -0.580173 0.814468
vn -0.162354 -0.720414 0.674274
vn -0.164096 -0.721648 0.672530
vn -0.551330 -0.204398 0.808861
vn -0.551330 -0.204398 0.808861
vn -0.621564 -0.405128 0.670470
vn -0.622096 -0.407121 0.668766
vn -0.940992 0.058203 0.333386
vn -0.940992 0.058203 0.333386
vn -0.943057 -0.185046 0.276408
vn -0.942937 -0.186085 0.276120
vn -0.940992 0.058203 -0.333386
vn -0.940992 0.058203 -0.333386
vn -0.942937 -0.186085 -0.276120
vn -0.943057 -0.185046 -0.276408
vn -0.551330 -0.204398 -0.808861
vn -0.551330 -0.204398 -0.808861
vn -0.622096 -0.407121 -0.668767
vn -0.621564 -0.405128 -0.670470
vn 0.006385 -0.580173 -0.814468
vn 0.006385 -0.580173 -0.814468
vn -0.164096 -0.721648 -0.672530
vn -0.162353 -0.720414 -0.674274
vn -0.126359 -0.973999 -0.188043
vn -0.126359 -0.973999 -0.188043
vn -0.126359 -0.973999 0.188043
vn -0.126359 -0.973999 0.188042
vn -0.344405 -0.821762 0.453975
vn -0.344405 -0.821762 0.453975
vn -0.652768 -0.606466 0.453975
vn -0.652768 -0.606466 0.453975
vn -0.870813 -0.454229 0.188042
vn -0.870813 -0.454229 0.188042
vn -0.870813 -0.454229 -0.188042
vn -0.870813 -0.454229 -0.188042
vn -0.652768 -0.606466 -0.453975
vn -0.652768 -0.606466 -0.453975
vn -0.344404 -0.821762 -0.453975
vn -0.344404 -0.821762 -0.453975
s off
g Geo_Antler
usemtl lambert2SG
f 1/9/1 2/10/2 10/19/3 9/18/4
f 2/10/5 3/11/6 11/20/7 10/19/8
f 3/11/9 4/12/10 12/21/11 11/20/12
f 4/12/13 5/13/14 13/22/15 12/21/16
f 5/13/17 6/14/18 14/23/19 13/22/20
f 6/14/21 7/15/22 15/24/23 14/23/24
f 7/15/25 8/16/26 16/25/27 15/24/28
f 8/16/29 1/17/30 9/26/31 16/25/32
f 208/225/33 207/226/34 209/227/35 210/228/36 211/229/37 212/230/38 213/231/39 214/232/40
f 113/131/41 114/132/42 115/133/43 116/134/44 117/135/45 118/136/46 119/137/47 120/138/48
f 9/33/49 10/32/50 18/36/51 17/35/52
f 10/32/53 11/31/54 19/37/55 18/36/56
f 11/31/57 12/30/58 20/38/59 19/37/60
f 12/30/61 13/29/62 21/39/63 20/38/64
f 13/29/65 14/28/66 22/40/67 21/39/68
f 14/28/69 15/27/70 23/41/71 22/40/72
f 140/157/73 139/158/74 141/159/75 142/160/76 143/161/77 144/162/78
f 17/35/79 18/36/80 26/44/81 25/43/82
f 18/36/83 19/37/84 27/45/85 26/44/86
f 19/37/87 20/38/88 28/46/89 27/45/90
f 20/38/91 21/39/92 29/47/93 28/46/94
f 21/39/95 22/40/96 30/48/97 29/47/98
f 22/40/99 23/41/100 31/49/101 30/48/102
f 23/41/103 24/42/104 32/50/105 31/49/106
f 24/42/107 17/35/108 25/43/109 32/50/110
f 25/43/111 26/44/112 34/52/113 33/51/114
f 26/44/115 27/45/116 35/53/117 34/52/118
f 27/45/119 28/46/120 36/54/121 35/53/122
f 28/46/123 29/47/124 37/55/125 36/54/126
f 29/47/127 30/48/128 38/56/129 37/55/130
f 30/48/131 31/49/132 39/57/133 38/56/134
f 31/49/135 32/50/136 40/58/137 39/57/138
f 32/50/139 25/43/140 33/51/141 40/58/142
f 33/51/143 34/52/144 42/60/145 41/59/146
f 34/52/147 35/53/148 43/61/149 42/60/150
f 35/53/151 36/54/152 44/62/153 43/61/154
f 36/54/155 37/55/156 45/63/157 44/62/158
f 37/55/159 38/56/160 46/64/161 45/63/162
f 38/56/163 39/57/164 47/65/165 46/64/166
f 39/57/167 40/58/168 48/66/169 47/65/170
f 40/58/171 33/51/172 41/59/173 48/66/174
f 41/59/175 42/60/176 50/68/177 49/67/178
f 42/60/179 43/61/180 51/69/181 50/68/182
f 43/61/183 44/62/184 52/70/185 51/69/186
f 44/62/187 45/63/188 53/71/189 52/70/190
f 45/63/191 46/64/192 54/72/193 53/71/194
f 46/64/195 47/65/196 55/73/197 54/72/198
f 164/181/199 163/182/200 165/183/201 166/184/202 167/185/203 168/186/204
f 49/67/205 50/68/206 58/76/207 57/75/208
f 50/68/209 51/69/210 59/77/211 58/76/212
f 51/69/213 52/70/214 60/78/215 59/77/216
f 52/70/217 53/71/218 61/79/219 60/78/220
f 53/71/221 54/72/222 62/80/223 61/79/224
f 54/72/225 55/73/226 63/81/227 62/80/228
f 55/73/229 56/74/230 64/82/231 63/81/232
f 56/74/233 49/67/234 57/75/235 64/82/236
f 57/75/237 58/76/238 66/84/239 65/83/240
f 58/76/241 59/77/242 67/85/243 66/84/244
f 59/77/245 60/78/246 68/86/247 67/85/248
f 60/78/249 61/79/250 69/87/251 68/86/252
f 61/79/253 62/80/254 70/88/255 69/87/256
f 62/80/257 63/81/258 71/89/259 70/88/260
f 63/81/261 64/82/262 72/90/263 71/89/264
f 64/82/265 57/75/266 65/83/267 72/90/268
f 65/83/269 66/84/270 74/92/271 73/91/272
f 66/84/273 67/85/274 75/93/275 74/92/276
f 194/211/277 193/212/278 195/213/279 196/214/280 197/215/281 198/216/282
f 69/87/283 70/88/284 78/96/285 77/95/286
f 70/88/287 71/89/288 79/97/289 78/96/290
f 71/89/291 72/90/292 80/98/293 79/97/294
f 72/90/295 65/83/296 73/91/297 80/98/298
f 73/91/299 74/92/300 82/100/301 81/99/302
f 74/92/303 75/93/304 83/101/305 82/100/306
f 75/93/307 76/94/308 84/102/309 83/101/310
f 76/94/311 77/95/312 85/103/313 84/102/314
f 77/95/315 78/96/316 86/104/317 85/103/318
f 78/96/319 79/97/320 87/105/321 86/104/322
f 79/97/323 80/98/324 88/106/325 87/105/326
f 80/98/327 73/91/328 81/99/329 88/106/330
f 81/99/331 82/100/332 90/108/333 89/107/334
f 82/100/335 83/101/336 91/109/337 90/108/338
f 83/101/339 84/102/340 92/110/341 91/109/342
f 84/102/343 85/103/344 93/111/345 92/110/346
f 85/103/347 86/104/348 94/112/349 93/111/350
f 86/104/351 87/105/352 95/113/353 94/112/354
f 87/105/355 88/106/356 96/114/357 95/113/358
f 88/106/359 81/99/360 89/107/361 96/114/362
f 89/107/363 90/108/364 98/116/365 97/115/366
f 90/108/367 91/109/368 99/117/369 98/116/370
f 91/109/371 92/110/372 100/118/373 99/117/374
f 92/110/375 93/111/376 101/119/377 100/118/378
f 93/111/379 94/112/380 102/120/381 101/119/382
f 94/112/383 95/113/384 103/121/385 102/120/386
f 95/113/387 96/114/388 104/122/389 103/121/390
f 96/114/391 89/107/392 97/115/393 104/122/394
f 97/115/395 98/116/396 106/124/397 105/123/398
f 98/116/399 99/117/400 107/125/401 106/124/402
f 99/117/403 100/118/404 108/126/405 107/125/406
f 100/118/407 101/119/408 109/127/409 108/126/410
f 101/119/411 102/120/412 110/128/413 109/127/414
f 102/120/415 103/121/416 111/129/417 110/128/418
f 103/121/419 104/122/420 112/130/421 111/129/422
f 104/122/423 97/115/424 105/123/425 112/130/426
f 105/123/427 106/124/428 114/132/429 113/131/430
f 106/124/431 107/125/432 115/133/433 114/132/434
f 107/125/435 108/126/436 116/134/437 115/133/438
f 108/126/439 109/127/440 117/135/441 116/134/442
f 109/127/443 110/128/444 118/136/445 117/135/446
f 110/128/447 111/129/448 119/137/449 118/136/450
f 111/129/451 112/130/452 120/138/453 119/137/454
f 112/130/455 105/123/456 113/131/457 120/138/458
f 15/27/459 16/34/460 122/140/461 121/139/462
f 24/42/463 23/41/464 124/142/465 123/141/466
f 23/41/467 15/27/468 121/139/469 124/142/470
f 16/34/471 9/33/472 125/143/473 122/140/474
f 9/33/475 17/35/476 126/144/477 125/143/478
f 17/35/479 24/42/480 123/141/481 126/144/482
s 1
f 123/141/483 124/142/484 127/146/485 128/145/486
s 2
f 124/142/487 121/139/488 129/147/489 127/146/490
s 3
f 121/139/491 122/140/492 130/148/493 129/147/494
s 4
f 122/140/495 125/143/496 131/149/497 130/148/498
s 5
f 125/143/499 126/144/500 132/150/501 131/149/502
s 6
f 126/144/503 123/141/504 128/145/505 132/150/506
s 1
f 128/145/486 127/146/485 133/152/507 134/151/508
s 2
f 127/146/490 129/147/489 135/153/509 133/152/510
s 3
f 129/147/494 130/148/493 136/154/511 135/153/512
s 4
f 130/148/498 131/149/497 137/155/513 136/154/514
s 5
f 131/149/502 132/150/501 138/156/515 137/155/516
s 6
f 132/150/506 128/145/505 134/151/517 138/156/518
s off
f 134/151/519 133/152/520 139/158/521 140/157/522
f 133/152/523 135/153/524 141/159/525 139/158/526
f 135/153/527 136/154/528 142/160/529 141/159/530
f 136/154/531 137/155/532 143/161/533 142/160/534
f 137/155/535 138/156/536 144/162/537 143/161/538
f 138/156/539 134/151/540 140/157/541 144/162/542
f 47/65/543 48/66/544 146/164/545 145/163/546
f 56/74/547 55/73/548 148/166/549 147/165/550
f 55/73/551 47/65/552 145/163/553 148/166/554
f 48/66/555 41/59/556 149/167/557 146/164/558
f 41/59/559 49/67/560 150/168/561 149/167/562
f 49/67/563 56/74/564 147/165/565 150/168/566
f 147/165/567 148/166/568 151/170/569 152/169/570
f 148/166/571 145/163/572 153/171/573 151/170/574
f 145/163/575 146/164/576 154/172/577 153/171/578
f 146/164/579 149/167/580 155/173/581 154/172/582
f 149/167/583 150/168/584 156/174/585 155/173/586
f 150/168/587 147/165/588 152/169/589 156/174/590
f 152/169/591 151/170/592 157/176/593 158/175/594
f 151/170/595 153/171/596 159/177/597 157/176/598
f 153/171/599 154/172/600 160/178/601 159/177/602
f 154/172/603 155/173/604 161/179/605 160/178/606
f 155/173/607 156/174/608 162/180/609 161/179/610
f 156/174/611 152/169/612 158/175/613 162/180/614
f 158/175/615 157/176/616 163/182/617 164/181/618
f 157/176/619 159/177/620 165/183/621 163/182/622
f 159/177/623 160/178/624 166/184/625 165/183/626
f 160/178/627 161/179/628 167/185/629 166/184/630
f 161/179/631 162/180/632 168/186/633 167/185/634
f 162/180/635 158/175/636 164/181/637 168/186/638
f 67/85/639 68/86/640 170/188/641 169/187/642
f 76/94/643 75/93/644 172/190/645 171/189/646
f 75/93/647 67/85/648 169/187/649 172/190/650
f 68/86/651 69/87/652 173/191/653 170/188/654
f 69/87/655 77/95/656 174/192/657 173/191/658
f 77/95/659 76/94/660 171/189/661 174/192/662
f 171/189/663 172/190/664 175/194/665 176/193/666
f 172/190/667 169/187/668 177/195/669 175/194/670
f 169/187/671 170/188/672 178/196/673 177/195/674
f 170/188/675 173/191/676 179/197/677 178/196/678
f 173/191/679 174/192/680 180/198/681 179/197/682
f 174/192/683 171/189/684 176/193/685 180/198/686
f 176/193/687 175/194/688 181/200/689 182/199/690
f 175/194/691 177/195/692 183/201/693 181/200/694
f 177/195/695 178/196/696 184/202/697 183/201/698
f 178/196/699 179/197/700 185/203/701 184/202/702
f 179/197/703 180/198/704 186/204/705 185/203/706
f 180/198/707 176/193/708 182/199/709 186/204/710
f 182/199/711 181/200/712 187/206/713 188/205/714
f 181/200/715 183/201/716 189/207/717 187/206/718
f 183/201/719 184/202/720 190/208/721 189/207/722
f 184/202/723 185/203/724 191/209/725 190/208/726
f 185/203/727 186/204/728 192/210/729 191/209/730
f 186/204/731 182/199/732 188/205/733 192/210/734
f 188/205/735 187/206/736 193/212/737 194/211/738
f 187/206/739 189/207/740 195/213/741 193/212/742
f 189/207/743 190/208/744 196/214/745 195/213/746
f 190/208/747 191/209/748 197/215/749 196/214/750
f 191/209/751 192/210/752 198/216/753 197/215/754
f 192/210/755 188/205/756 194/211/757 198/216/758
s 7
f 1/1/759 8/8/760 199/218/761 200/217/762
s 8
f 8/8/763 7/7/764 201/219/765 199/218/766
s 9
f 7/7/767 6/6/768 202/220/769 201/219/770
s 10
f 6/6/771 5/5/772 203/221/773 202/220/774
s 11
f 5/5/775 4/4/776 204/222/777 203/221/778
s 12
f 4/4/779 3/3/780 205/223/781 204/222/782
s 13
f 3/3/783 2/2/784 206/224/785 205/223/786
s 14
f 2/2/787 1/1/788 200/217/789 206/224/790
s 7
f 200/217/762 199/218/761 207/226/791 208/225/792
s 8
f 199/218/766 201/219/765 209/227/793 207/226/794
s 9
f 201/219/770 202/220/769 210/228/795 209/227/796
s 10
f 202/220/774 203/221/773 211/229/797 210/228/798
s 11
f 203/221/778 204/222/777 212/230/799 211/229/800
s 12
f 204/222/782 205/223/781 213/231/801 212/230/802
s 13
f 205/223/786 206/224/785 214/232/803 213/231/804
s 14
f 206/224/790 200/217/789 208/225/805 214/232/806
